<mxfile host="app.diagrams.net" modified="2020-10-31T13:16:39.375Z" agent="5.0 (Windows NT 10.0; Win64; x64) AppleWebKit/537.36 (KHTML, like Gecko) Chrome/86.0.4240.111 Safari/537.36" etag="OM2kjsQtPFmHOgzosDih" version="13.8.8" type="github">
  <diagram id="4n4P1LQYV9RubtbEyFOB" name="Page-1">
    <mxGraphModel dx="1384" dy="699" grid="1" gridSize="10" guides="1" tooltips="1" connect="1" arrows="1" fold="1" page="1" pageScale="1" pageWidth="827" pageHeight="1169" math="0" shadow="0">
      <root>
        <mxCell id="0" />
        <mxCell id="1" parent="0" />
        <mxCell id="i43renbM4Zd2Fn7u5ZbT-6" style="edgeStyle=orthogonalEdgeStyle;rounded=0;orthogonalLoop=1;jettySize=auto;html=1;exitX=1;exitY=0.5;exitDx=0;exitDy=0;" edge="1" parent="1" source="i43renbM4Zd2Fn7u5ZbT-1" target="i43renbM4Zd2Fn7u5ZbT-2">
          <mxGeometry relative="1" as="geometry" />
        </mxCell>
        <mxCell id="i43renbM4Zd2Fn7u5ZbT-1" value="" style="ellipse;fillColor=#000000;strokeColor=none;" vertex="1" parent="1">
          <mxGeometry x="60" y="230" width="30" height="30" as="geometry" />
        </mxCell>
        <mxCell id="i43renbM4Zd2Fn7u5ZbT-8" style="edgeStyle=orthogonalEdgeStyle;rounded=0;orthogonalLoop=1;jettySize=auto;html=1;exitX=0.5;exitY=1;exitDx=0;exitDy=0;entryX=0.5;entryY=0;entryDx=0;entryDy=0;" edge="1" parent="1" source="i43renbM4Zd2Fn7u5ZbT-2" target="i43renbM4Zd2Fn7u5ZbT-4">
          <mxGeometry relative="1" as="geometry" />
        </mxCell>
        <mxCell id="i43renbM4Zd2Fn7u5ZbT-22" style="edgeStyle=none;rounded=0;orthogonalLoop=1;jettySize=auto;html=1;exitX=1;exitY=0.5;exitDx=0;exitDy=0;entryX=0;entryY=0.5;entryDx=0;entryDy=0;" edge="1" parent="1" source="i43renbM4Zd2Fn7u5ZbT-2" target="i43renbM4Zd2Fn7u5ZbT-17">
          <mxGeometry relative="1" as="geometry" />
        </mxCell>
        <mxCell id="i43renbM4Zd2Fn7u5ZbT-2" value="待上线" style="rounded=1;whiteSpace=wrap;html=1;" vertex="1" parent="1">
          <mxGeometry x="240" y="225" width="80" height="40" as="geometry" />
        </mxCell>
        <mxCell id="i43renbM4Zd2Fn7u5ZbT-11" style="edgeStyle=orthogonalEdgeStyle;rounded=0;orthogonalLoop=1;jettySize=auto;html=1;exitX=1;exitY=0.5;exitDx=0;exitDy=0;" edge="1" parent="1" source="i43renbM4Zd2Fn7u5ZbT-4" target="i43renbM4Zd2Fn7u5ZbT-5">
          <mxGeometry relative="1" as="geometry" />
        </mxCell>
        <mxCell id="i43renbM4Zd2Fn7u5ZbT-18" style="edgeStyle=orthogonalEdgeStyle;curved=1;rounded=0;orthogonalLoop=1;jettySize=auto;html=1;exitX=0.5;exitY=1;exitDx=0;exitDy=0;entryX=0.5;entryY=1;entryDx=0;entryDy=0;" edge="1" parent="1" source="i43renbM4Zd2Fn7u5ZbT-4" target="i43renbM4Zd2Fn7u5ZbT-5">
          <mxGeometry relative="1" as="geometry">
            <Array as="points">
              <mxPoint x="280" y="490" />
              <mxPoint x="620" y="490" />
            </Array>
          </mxGeometry>
        </mxCell>
        <mxCell id="i43renbM4Zd2Fn7u5ZbT-4" value="活动开始" style="rounded=1;whiteSpace=wrap;html=1;" vertex="1" parent="1">
          <mxGeometry x="245" y="410" width="70" height="40" as="geometry" />
        </mxCell>
        <mxCell id="i43renbM4Zd2Fn7u5ZbT-15" style="edgeStyle=orthogonalEdgeStyle;curved=1;rounded=0;orthogonalLoop=1;jettySize=auto;html=1;exitX=0.5;exitY=0;exitDx=0;exitDy=0;entryX=1;entryY=0.5;entryDx=0;entryDy=0;" edge="1" parent="1" source="i43renbM4Zd2Fn7u5ZbT-5" target="i43renbM4Zd2Fn7u5ZbT-2">
          <mxGeometry relative="1" as="geometry" />
        </mxCell>
        <mxCell id="i43renbM4Zd2Fn7u5ZbT-20" style="rounded=0;orthogonalLoop=1;jettySize=auto;html=1;exitX=0.5;exitY=0;exitDx=0;exitDy=0;entryX=0.5;entryY=1;entryDx=0;entryDy=0;" edge="1" parent="1" source="i43renbM4Zd2Fn7u5ZbT-5" target="i43renbM4Zd2Fn7u5ZbT-17">
          <mxGeometry relative="1" as="geometry" />
        </mxCell>
        <mxCell id="i43renbM4Zd2Fn7u5ZbT-5" value="下线" style="rounded=1;whiteSpace=wrap;html=1;" vertex="1" parent="1">
          <mxGeometry x="580" y="410" width="80" height="40" as="geometry" />
        </mxCell>
        <mxCell id="i43renbM4Zd2Fn7u5ZbT-7" value="管理员新建优惠活动" style="text;html=1;strokeColor=none;fillColor=none;align=center;verticalAlign=middle;whiteSpace=wrap;rounded=0;" vertex="1" parent="1">
          <mxGeometry x="100" y="220" width="110" height="20" as="geometry" />
        </mxCell>
        <mxCell id="i43renbM4Zd2Fn7u5ZbT-9" value="开始活动" style="text;html=1;strokeColor=none;fillColor=none;align=center;verticalAlign=middle;whiteSpace=wrap;rounded=0;" vertex="1" parent="1">
          <mxGeometry x="290" y="330" width="60" height="20" as="geometry" />
        </mxCell>
        <mxCell id="i43renbM4Zd2Fn7u5ZbT-12" value="活动正常结束" style="text;html=1;strokeColor=none;fillColor=none;align=center;verticalAlign=middle;whiteSpace=wrap;rounded=0;" vertex="1" parent="1">
          <mxGeometry x="340" y="410" width="120" height="20" as="geometry" />
        </mxCell>
        <mxCell id="i43renbM4Zd2Fn7u5ZbT-14" value="管理员下线优惠活动" style="text;html=1;strokeColor=none;fillColor=none;align=center;verticalAlign=middle;whiteSpace=wrap;rounded=0;" vertex="1" parent="1">
          <mxGeometry x="360" y="490" width="110" height="20" as="geometry" />
        </mxCell>
        <mxCell id="i43renbM4Zd2Fn7u5ZbT-16" value="重新修改" style="text;html=1;strokeColor=none;fillColor=none;align=center;verticalAlign=middle;whiteSpace=wrap;rounded=0;" vertex="1" parent="1">
          <mxGeometry x="450" y="300" width="60" height="20" as="geometry" />
        </mxCell>
        <mxCell id="i43renbM4Zd2Fn7u5ZbT-17" value="" style="ellipse;html=1;shape=endState;fillColor=#000000;strokeColor=#000000;" vertex="1" parent="1">
          <mxGeometry x="605" y="230" width="30" height="30" as="geometry" />
        </mxCell>
        <mxCell id="i43renbM4Zd2Fn7u5ZbT-21" value="活动完成·" style="text;html=1;strokeColor=none;fillColor=none;align=center;verticalAlign=middle;whiteSpace=wrap;rounded=0;" vertex="1" parent="1">
          <mxGeometry x="630" y="320" width="60" height="20" as="geometry" />
        </mxCell>
        <mxCell id="i43renbM4Zd2Fn7u5ZbT-23" value="活动逻辑删除" style="text;html=1;strokeColor=none;fillColor=none;align=center;verticalAlign=middle;whiteSpace=wrap;rounded=0;" vertex="1" parent="1">
          <mxGeometry x="410" y="220" width="100" height="20" as="geometry" />
        </mxCell>
        <mxCell id="i43renbM4Zd2Fn7u5ZbT-24" value="" style="shape=table;html=1;whiteSpace=wrap;startSize=0;container=1;collapsible=0;childLayout=tableLayout;" vertex="1" parent="1">
          <mxGeometry x="150" y="540" width="450" height="120" as="geometry" />
        </mxCell>
        <mxCell id="i43renbM4Zd2Fn7u5ZbT-25" value="" style="shape=partialRectangle;html=1;whiteSpace=wrap;collapsible=0;dropTarget=0;pointerEvents=0;fillColor=none;top=0;left=0;bottom=0;right=0;points=[[0,0.5],[1,0.5]];portConstraint=eastwest;" vertex="1" parent="i43renbM4Zd2Fn7u5ZbT-24">
          <mxGeometry width="450" height="40" as="geometry" />
        </mxCell>
        <mxCell id="i43renbM4Zd2Fn7u5ZbT-26" value="管理员新建己方优惠活动" style="shape=partialRectangle;html=1;whiteSpace=wrap;connectable=0;overflow=hidden;fillColor=none;top=0;left=0;bottom=0;right=0;" vertex="1" parent="i43renbM4Zd2Fn7u5ZbT-25">
          <mxGeometry width="170" height="40" as="geometry" />
        </mxCell>
        <mxCell id="i43renbM4Zd2Fn7u5ZbT-27" value="POST /shops/{shopId}/spus/{id}/couponactivities" style="shape=partialRectangle;html=1;whiteSpace=wrap;connectable=0;overflow=hidden;fillColor=none;top=0;left=0;bottom=0;right=0;" vertex="1" parent="i43renbM4Zd2Fn7u5ZbT-25">
          <mxGeometry x="170" width="280" height="40" as="geometry" />
        </mxCell>
        <mxCell id="i43renbM4Zd2Fn7u5ZbT-28" value="" style="shape=partialRectangle;html=1;whiteSpace=wrap;collapsible=0;dropTarget=0;pointerEvents=0;fillColor=none;top=0;left=0;bottom=0;right=0;points=[[0,0.5],[1,0.5]];portConstraint=eastwest;" vertex="1" parent="i43renbM4Zd2Fn7u5ZbT-24">
          <mxGeometry y="40" width="450" height="40" as="geometry" />
        </mxCell>
        <mxCell id="i43renbM4Zd2Fn7u5ZbT-29" value="管理员修改己方优惠活动" style="shape=partialRectangle;html=1;whiteSpace=wrap;connectable=0;overflow=hidden;fillColor=none;top=0;left=0;bottom=0;right=0;" vertex="1" parent="i43renbM4Zd2Fn7u5ZbT-28">
          <mxGeometry width="170" height="40" as="geometry" />
        </mxCell>
        <mxCell id="i43renbM4Zd2Fn7u5ZbT-30" value="PUT /shops/{shopId}/couponactivities/{id}" style="shape=partialRectangle;html=1;whiteSpace=wrap;connectable=0;overflow=hidden;fillColor=none;top=0;left=0;bottom=0;right=0;" vertex="1" parent="i43renbM4Zd2Fn7u5ZbT-28">
          <mxGeometry x="170" width="280" height="40" as="geometry" />
        </mxCell>
        <mxCell id="i43renbM4Zd2Fn7u5ZbT-31" value="" style="shape=partialRectangle;html=1;whiteSpace=wrap;collapsible=0;dropTarget=0;pointerEvents=0;fillColor=none;top=0;left=0;bottom=0;right=0;points=[[0,0.5],[1,0.5]];portConstraint=eastwest;" vertex="1" parent="i43renbM4Zd2Fn7u5ZbT-24">
          <mxGeometry y="80" width="450" height="40" as="geometry" />
        </mxCell>
        <mxCell id="i43renbM4Zd2Fn7u5ZbT-32" value="管理员下线己方优惠活动" style="shape=partialRectangle;html=1;whiteSpace=wrap;connectable=0;overflow=hidden;fillColor=none;top=0;left=0;bottom=0;right=0;" vertex="1" parent="i43renbM4Zd2Fn7u5ZbT-31">
          <mxGeometry width="170" height="40" as="geometry" />
        </mxCell>
        <mxCell id="i43renbM4Zd2Fn7u5ZbT-33" value="DELETE /shops/{shopId}/coupinactivities/{id}" style="shape=partialRectangle;html=1;whiteSpace=wrap;connectable=0;overflow=hidden;fillColor=none;top=0;left=0;bottom=0;right=0;" vertex="1" parent="i43renbM4Zd2Fn7u5ZbT-31">
          <mxGeometry x="170" width="280" height="40" as="geometry" />
        </mxCell>
      </root>
    </mxGraphModel>
  </diagram>
</mxfile>
